<svg width="293" height="202" viewBox="0 0 293 202" fill="none" xmlns="http://www.w3.org/2000/svg">
<path d="M157 127.333C180.563 127.333 199.667 117.787 199.667 106C199.667 94.2133 180.563 84.6667 157 84.6667C133.437 84.6667 114.333 94.2133 114.333 106C114.333 117.787 133.437 127.333 157 127.333Z" fill="#8E51FF"/>
<path opacity="0.5" d="M114.333 138V170C114.333 181.787 133.437 191.333 157 191.333C180.563 191.333 199.667 181.787 199.667 170V138C199.667 149.787 180.563 159.333 157 159.333C133.437 159.333 114.333 149.787 114.333 138Z" fill="#8E51FF"/>
<path opacity="0.7" d="M114.333 106V138C114.333 149.787 133.437 159.333 157 159.333C180.563 159.333 199.667 149.787 199.667 138V106C199.667 117.787 180.563 127.333 157 127.333C133.437 127.333 114.333 117.787 114.333 106Z" fill="#8E51FF"/>
<path d="M61.7356 24.8239C62.3859 17.3903 62.7111 13.6735 63.6991 12.4998C64.6847 11.3283 68.2831 10.4368 75.482 8.65649L76.8537 8.31742C80.6053 7.38786 82.4799 6.92414 84.3674 7.08927C86.2548 7.2544 88.0204 8.03659 91.5536 9.60349L92.8456 10.1756C99.626 13.179 103.015 14.6817 103.782 16.0066C104.551 17.3341 104.226 21.0532 103.576 28.4845L103.256 32.1432C102.109 45.2484 91.6991 50.7484 85.28 52.9062C83.54 53.4917 82.671 53.7858 80.3001 53.5784C77.9291 53.3709 77.1245 52.9305 75.5126 52.0516C69.5659 48.8097 60.2687 41.5902 61.4155 28.4826L61.7356 24.8239Z" fill="#F0B100"/>
<path d="M83.3 19.2927C83.7624 19.3331 84.1898 19.5556 84.4881 19.9111C84.7864 20.2667 84.9313 20.7262 84.8909 21.1885L84.0774 30.4863C84.037 30.9487 83.8145 31.3761 83.4589 31.6744C83.1034 31.9727 82.6439 32.1176 82.1815 32.0772C81.7192 32.0367 81.2918 31.8142 80.9935 31.4587C80.6952 31.1031 80.5503 30.6437 80.5907 30.1813L81.4042 20.8835C81.4446 20.4211 81.6671 19.9938 82.0226 19.6954C82.3782 19.3971 82.8377 19.2522 83.3 19.2927ZM81.5206 39.6316C82.1371 39.6856 82.7498 39.4924 83.2238 39.0946C83.6979 38.6968 83.9945 38.127 84.0484 37.5105C84.1024 36.8941 83.9092 36.2814 83.5114 35.8073C83.1136 35.3333 82.5438 35.0367 81.9273 34.9827C81.3109 34.9288 80.6982 35.122 80.2241 35.5197C79.7501 35.9175 79.4535 36.4873 79.3995 37.1038C79.3456 37.7203 79.5388 38.333 79.9365 38.807C80.3343 39.2811 80.9041 39.5777 81.5206 39.6316Z" fill="#363636"/>
<g clip-path="url(#clip0_35_155)">
<path d="M238.964 85.2898C240.896 78.0821 241.861 74.4782 243.038 73.494C244.212 72.5113 247.911 72.2583 255.309 71.7551L256.719 71.6593C260.575 71.3954 262.502 71.2642 264.332 71.7546C266.162 72.245 267.765 73.3218 270.972 75.4785L272.145 76.2663C278.301 80.4014 281.378 82.4698 281.903 83.9078C282.43 85.3486 281.464 88.9548 279.533 96.1602L278.583 99.7078C275.178 112.415 263.971 116.024 257.275 117.034C255.459 117.308 254.552 117.447 252.254 116.831C249.955 116.215 249.239 115.642 247.804 114.496C242.511 110.271 234.608 101.547 238.014 88.8374L238.964 85.2898Z" fill="#FF2056"/>
<path d="M255.682 86.2741C255.572 86.0665 255.421 85.8833 255.239 85.7354C255.056 85.5874 254.845 85.4778 254.62 85.4129C254.394 85.3481 254.157 85.3295 253.924 85.3581C253.69 85.3867 253.465 85.462 253.262 85.5795C253.058 85.697 252.881 85.8543 252.739 86.042C252.598 86.2297 252.496 86.444 252.439 86.672C252.382 86.9001 252.372 87.1372 252.408 87.3693C252.445 87.6014 252.529 87.8237 252.653 88.023L255.903 93.6527L250.274 96.9031C250.066 97.0133 249.883 97.1642 249.735 97.3468C249.587 97.5294 249.477 97.7399 249.413 97.9658C249.348 98.1917 249.329 98.4284 249.358 98.6616C249.386 98.8949 249.462 99.12 249.579 99.3235C249.697 99.527 249.854 99.7048 250.042 99.8462C250.229 99.9876 250.444 100.09 250.672 100.147C250.9 100.203 251.137 100.214 251.369 100.177C251.601 100.14 251.823 100.057 252.023 99.9323L257.652 96.6819L260.903 102.312C261.143 102.696 261.523 102.972 261.963 103.082C262.403 103.191 262.869 103.126 263.261 102.899C263.654 102.673 263.943 102.302 264.069 101.866C264.194 101.431 264.145 100.963 263.932 100.563L260.682 94.933L266.311 91.6827C266.519 91.5724 266.702 91.4215 266.85 91.2389C266.998 91.0563 267.108 90.8458 267.172 90.6199C267.237 90.394 267.256 90.1574 267.227 89.9241C267.199 89.6908 267.123 89.4657 267.006 89.2622C266.888 89.0587 266.731 88.8809 266.543 88.7395C266.356 88.5981 266.141 88.4959 265.913 88.4391C265.685 88.3823 265.448 88.372 265.216 88.4088C264.984 88.4457 264.762 88.5289 264.562 88.6535L258.933 91.9038L255.682 86.2741Z" fill="#363636"/>
</g>
<g clip-path="url(#clip1_35_155)">
<path d="M14.1703 118.347C12.4625 111.973 11.6079 108.784 13.0588 106.275C14.5068 103.763 17.696 102.909 24.0698 101.201L42.1005 96.3696C48.4743 94.6617 51.6634 93.8072 54.1731 95.258C56.6845 96.7061 57.539 99.8952 59.2469 106.269C60.9547 112.643 61.8093 115.832 60.3584 118.342C58.9104 120.853 55.7212 121.708 49.3474 123.415L31.3168 128.247C24.9429 129.955 21.7538 130.809 19.2441 129.358C16.7327 127.91 15.8782 124.721 14.1703 118.347Z" fill="#00BBA7"/>
<path d="M28.297 116.978C28.8947 116.817 29.4043 116.426 29.7138 115.89C30.0232 115.355 30.107 114.718 29.9469 114.12C29.7867 113.522 29.3956 113.013 28.8597 112.703C28.3238 112.394 27.6869 112.31 27.0891 112.47C26.4914 112.63 25.9817 113.021 25.6723 113.557C25.3629 114.093 25.279 114.73 25.4392 115.328C25.5994 115.925 25.9904 116.435 26.5264 116.745C27.0623 117.054 27.6992 117.138 28.297 116.978ZM37.3123 114.562C37.91 114.402 38.4197 114.011 38.7291 113.475C39.0385 112.939 39.1223 112.302 38.9622 111.704C38.802 111.107 38.4109 110.597 37.875 110.287C37.3391 109.978 36.7022 109.894 36.1044 110.054C35.5067 110.215 34.997 110.606 34.6876 111.141C34.3782 111.677 34.2944 112.314 34.4545 112.912C34.6147 113.51 35.0058 114.019 35.5417 114.329C36.0776 114.638 36.7145 114.722 37.3123 114.562ZM47.9775 109.289C48.1377 109.886 48.0538 110.523 47.7444 111.059C47.435 111.595 46.9253 111.986 46.3276 112.146C45.7298 112.307 45.0929 112.223 44.557 111.913C44.0211 111.604 43.63 111.094 43.4698 110.496C43.3097 109.899 43.3935 109.262 43.7029 108.726C44.0124 108.19 44.522 107.799 45.1197 107.639C45.7175 107.479 46.3544 107.562 46.8903 107.872C47.4263 108.181 47.8173 108.691 47.9775 109.289ZM20.0445 97.4481C19.2681 94.5664 19.5704 91.5005 20.8946 88.826C22.2188 86.1515 24.4738 84.0523 27.2362 82.9228C29.9986 81.7932 33.0783 81.7109 35.897 82.6913C38.7158 83.6717 41.0797 85.6474 42.5448 88.2474C42.7799 88.6375 43.1579 88.9206 43.5984 89.0365C44.0389 89.1524 44.5073 89.092 44.904 88.8681C45.3006 88.6442 45.5944 88.2744 45.7228 87.8374C45.8512 87.4003 45.8041 86.9305 45.5915 86.5276C43.7068 83.1871 40.6679 80.6492 37.0451 79.39C33.4222 78.1307 29.4643 78.2368 25.9141 79.6882C22.3638 81.1396 19.4652 83.8367 17.7621 87.2733C16.059 90.7099 15.6685 94.6499 16.6637 98.354L17.9048 102.986C19.0105 102.61 20.1277 102.27 21.2547 101.965L20.0445 97.4481Z" fill="#009689"/>
</g>
<defs>
<clipPath id="clip0_35_155">
<rect width="56" height="56" fill="white" transform="translate(238.494 60) rotate(15)"/>
</clipPath>
<clipPath id="clip1_35_155">
<rect width="56" height="56" fill="white" transform="translate(0 83.4939) rotate(-15)"/>
</clipPath>
</defs>
</svg>
