<svg width="1316" height="334" viewBox="0 0 1316 334" fill="none" xmlns="http://www.w3.org/2000/svg">
<g opacity="0.4">
<mask id="path-1-inside-1_44_321" fill="white">
<path d="M64 24C64 10.7452 74.7452 0 88 0H1223.99C1237.25 0 1247.99 10.7452 1247.99 24V230H64V24Z"/>
</mask>
<path d="M63 24C63 10.1929 74.1929 -1 88 -1H1223.99C1237.8 -1 1248.99 10.1929 1248.99 24H1246.99C1246.99 11.2975 1236.7 1 1223.99 1H88C75.2975 1 65 11.2975 65 24H63ZM1247.99 230H64H1247.99ZM63 230V24C63 10.1929 74.1929 -1 88 -1V1C75.2975 1 65 11.2975 65 24V230H63ZM1223.99 -1C1237.8 -1 1248.99 10.1929 1248.99 24V230H1246.99V24C1246.99 11.2975 1236.7 1 1223.99 1V-1Z" fill="#7F22FE" mask="url(#path-1-inside-1_44_321)"/>
<line x1="128.502" y1="230" x2="128.502" y2="1.22339" stroke="#7F22FE"/>
<line x1="624.499" y1="230" x2="624.499" y2="1.22339" stroke="#7F22FE"/>
<line x1="376.5" y1="230" x2="376.5" y2="1.22339" stroke="#7F22FE"/>
<line x1="872.498" y1="230" x2="872.498" y2="1.22339" stroke="#7F22FE"/>
<line x1="252.501" y1="230" x2="252.501" y2="1.22339" stroke="#7F22FE"/>
<line x1="748.499" y1="230" x2="748.499" y2="1.22339" stroke="#7F22FE"/>
<line x1="500.5" y1="230" x2="500.5" y2="1.22339" stroke="#7F22FE"/>
<line x1="996.498" y1="230" x2="996.498" y2="1.22339" stroke="#7F22FE"/>
<line x1="1182.5" y1="228.776" x2="1182.5" y2="-0.00012207" stroke="#7F22FE"/>
<line x1="190.501" y1="230" x2="190.501" y2="1.22339" stroke="#7F22FE"/>
<line x1="686.499" y1="230" x2="686.499" y2="1.22339" stroke="#7F22FE"/>
<line x1="438.5" y1="230" x2="438.5" y2="1.22339" stroke="#7F22FE"/>
<line x1="934.498" y1="230" x2="934.498" y2="1.22339" stroke="#7F22FE"/>
<line x1="1120.5" y1="228.776" x2="1120.5" y2="-0.00012207" stroke="#7F22FE"/>
<line x1="314.501" y1="230" x2="314.501" y2="1.22339" stroke="#7F22FE"/>
<line x1="810.499" y1="230" x2="810.499" y2="1.22339" stroke="#7F22FE"/>
<line x1="562.5" y1="230" x2="562.5" y2="1.22339" stroke="#7F22FE"/>
<line x1="1058.5" y1="230" x2="1058.5" y2="1.22339" stroke="#7F22FE"/>
<line x1="64" y1="87.585" x2="1248" y2="87.585" stroke="#7F22FE"/>
<line x1="64.002" y1="175.67" x2="1248" y2="175.67" stroke="#7F22FE"/>
</g>
<g filter="url(#filter0_f_44_321)">
<rect x="64" y="198" width="1188" height="72" fill="#09090B"/>
<rect x="64.5" y="198.5" width="1187" height="71" stroke="#7F22FE"/>
</g>
<defs>
<filter id="filter0_f_44_321" x="0" y="134" width="1316" height="200" filterUnits="userSpaceOnUse" color-interpolation-filters="sRGB">
<feFlood flood-opacity="0" result="BackgroundImageFix"/>
<feBlend mode="normal" in="SourceGraphic" in2="BackgroundImageFix" result="shape"/>
<feGaussianBlur stdDeviation="32" result="effect1_foregroundBlur_44_321"/>
</filter>
</defs>
</svg>
