<svg width="128" height="128" viewBox="0 0 128 128" fill="none" xmlns="http://www.w3.org/2000/svg">
<path fill-rule="evenodd" clip-rule="evenodd" d="M27.9998 53.6266V42.6666C27.9998 33.1188 31.7927 23.9621 38.544 17.2108C45.2953 10.4595 54.452 6.66663 63.9998 6.66663C73.5476 6.66663 82.7044 10.4595 89.4557 17.2108C96.207 23.9621 99.9998 33.1188 99.9998 42.6666V53.6266C105.946 54.0693 109.813 55.1893 112.645 58.0213C117.333 62.704 117.333 70.2506 117.333 85.3333C117.333 100.416 117.333 107.963 112.645 112.645C107.962 117.333 100.416 117.333 85.3332 117.333H42.6665C27.5838 117.333 20.0372 117.333 15.3545 112.645C10.6665 107.963 10.6665 100.416 10.6665 85.3333C10.6665 70.2506 10.6665 62.704 15.3545 58.0213C18.1812 55.1893 22.0532 54.0693 27.9998 53.6266ZM35.9998 42.6666C35.9998 35.2406 38.9498 28.1187 44.2008 22.8676C49.4519 17.6166 56.5738 14.6666 63.9998 14.6666C71.4259 14.6666 78.5478 17.6166 83.7988 22.8676C89.0498 28.1187 91.9998 35.2406 91.9998 42.6666V53.3546C89.9589 53.3368 87.7367 53.3297 85.3332 53.3333H42.6665C40.2594 53.3297 38.0372 53.3368 35.9998 53.3546V42.6666ZM42.6665 90.6666C44.081 90.6666 45.4375 90.1047 46.4377 89.1045C47.4379 88.1043 47.9998 86.7478 47.9998 85.3333C47.9998 83.9188 47.4379 82.5622 46.4377 81.5621C45.4375 80.5619 44.081 80 42.6665 80C41.252 80 39.8955 80.5619 38.8953 81.5621C37.8951 82.5622 37.3332 83.9188 37.3332 85.3333C37.3332 86.7478 37.8951 88.1043 38.8953 89.1045C39.8955 90.1047 41.252 90.6666 42.6665 90.6666ZM63.9998 90.6666C65.4143 90.6666 66.7709 90.1047 67.7711 89.1045C68.7713 88.1043 69.3332 86.7478 69.3332 85.3333C69.3332 83.9188 68.7713 82.5622 67.7711 81.5621C66.7709 80.5619 65.4143 80 63.9998 80C62.5853 80 61.2288 80.5619 60.2286 81.5621C59.2284 82.5622 58.6665 83.9188 58.6665 85.3333C58.6665 86.7478 59.2284 88.1043 60.2286 89.1045C61.2288 90.1047 62.5853 90.6666 63.9998 90.6666ZM90.6665 85.3333C90.6665 86.7478 90.1046 88.1043 89.1044 89.1045C88.1042 90.1047 86.7477 90.6666 85.3332 90.6666C83.9187 90.6666 82.5621 90.1047 81.5619 89.1045C80.5617 88.1043 79.9998 86.7478 79.9998 85.3333C79.9998 83.9188 80.5617 82.5622 81.5619 81.5621C82.5621 80.5619 83.9187 80 85.3332 80C86.7477 80 88.1042 80.5619 89.1044 81.5621C90.1046 82.5622 90.6665 83.9188 90.6665 85.3333Z" fill="url(#paint0_linear_61_3)"/>
<defs>
<linearGradient id="paint0_linear_61_3" x1="63.9998" y1="6.66663" x2="64" y2="125.5" gradientUnits="userSpaceOnUse">
<stop stop-color="white"/>
<stop offset="1" stop-color="#9F0712"/>
</linearGradient>
</defs>
</svg>
