<svg width="128" height="30" viewBox="0 0 128 30" fill="none" xmlns="http://www.w3.org/2000/svg">
<mask id="mask0_42_313" style="mask-type:luminance" maskUnits="userSpaceOnUse" x="0" y="0" width="30" height="30">
<path d="M23.1822 1.28746e-05L0 6.21167L6.21166 29.3939L29.3939 23.1822L23.1822 1.28746e-05Z" fill="white"/>
</mask>
<g mask="url(#mask0_42_313)">
<path fill-rule="evenodd" clip-rule="evenodd" d="M4.57819 10.246C4.35231 10.8635 4.76642 12.409 5.59387 15.497L6.00125 17.0174C7.46047 22.4633 12.2635 24.0099 15.1333 24.4429C15.9113 24.5605 16.3009 24.6197 17.2851 24.356C18.2704 24.092 18.5772 23.8462 19.1921 23.3553C21.4607 21.5445 24.8474 17.8055 23.388 12.3587L22.9806 10.8383C22.1529 7.74926 21.739 6.20474 21.2347 5.78291C20.7315 5.36178 19.1464 5.25333 15.9756 5.03766L15.3714 4.99665C13.7188 4.88351 12.8931 4.8273 12.1088 5.03746C11.3244 5.24762 10.6375 5.70915 9.26281 6.63342L8.75981 6.97008C6.12185 8.74325 4.80336 9.62971 4.57819 10.246ZM18.7236 12.5308L14.7794 10.9476C14.428 10.8066 14.0404 10.7833 13.6746 10.8813C13.3089 10.9793 12.9848 11.1933 12.751 11.4912L10.1268 14.8343C10.066 14.9117 10.021 15.0004 9.99447 15.0953C9.96794 15.1901 9.96034 15.2893 9.97212 15.3871C9.9839 15.4848 10.0149 15.5793 10.0632 15.6652C10.1115 15.751 10.1762 15.8265 10.2537 15.8873C10.3312 15.9481 10.4199 15.9931 10.5147 16.0196C10.6096 16.0461 10.7087 16.0537 10.8065 16.042C10.9043 16.0302 10.9988 15.9992 11.0846 15.9509C11.1704 15.9026 11.2459 15.8379 11.3067 15.7604L13.9309 12.4173C13.9643 12.3748 14.0106 12.3442 14.0628 12.3302C14.1151 12.3162 14.1705 12.3195 14.2207 12.3397L18.1648 13.9228C18.2562 13.9595 18.3539 13.9778 18.4524 13.9767C18.5509 13.9757 18.6482 13.9552 18.7388 13.9165C18.8294 13.8778 18.9114 13.8217 18.9803 13.7513C19.0492 13.6808 19.1035 13.5976 19.1402 13.5062C19.1769 13.4148 19.1952 13.317 19.1941 13.2185C19.1931 13.1201 19.1726 13.0227 19.1339 12.9322C19.0952 12.8416 19.0391 12.7595 18.9687 12.6907C18.8982 12.6218 18.815 12.5675 18.7236 12.5308ZM17.4388 15.4632L15.1187 14.532C14.9681 14.4715 14.8019 14.4615 14.6452 14.5035C14.4884 14.5455 14.3495 14.6373 14.2493 14.7649L12.7057 16.7314C12.5829 16.8879 12.5273 17.0867 12.5511 17.2842C12.5749 17.4817 12.6761 17.6617 12.8326 17.7845C12.9891 17.9073 13.1879 17.9629 13.3854 17.9391C13.5829 17.9153 13.7628 17.8141 13.8856 17.6576L15.0821 16.134L16.88 16.8553C17.0646 16.9294 17.2711 16.9271 17.454 16.849C17.6369 16.7708 17.7813 16.6232 17.8554 16.4386C17.9295 16.254 17.9272 16.0475 17.8491 15.8646C17.771 15.6817 17.6234 15.5373 17.4388 15.4632Z" fill="white"/>
</g>
<path d="M38.7261 21.1971V8.43513H41.2101V14.5011L46.5741 8.41713H49.3101L44.4141 14.0871L49.6161 21.1971H46.8081L42.8301 15.6891L41.2101 17.3811V21.1971H38.7261ZM59.2992 21.1971H56.8872V15.9051C56.8872 15.1491 56.7552 14.5971 56.4912 14.2491C56.2272 13.9011 55.8612 13.7271 55.3932 13.7271C55.0692 13.7271 54.7392 13.8111 54.4032 13.9791C54.0792 14.1471 53.7852 14.3811 53.5212 14.6811C53.2572 14.9691 53.0652 15.3051 52.9452 15.6891V21.1971H50.5332V11.7651H52.7112V13.5111C52.9512 13.1031 53.2572 12.7611 53.6292 12.4851C54.0012 12.1971 54.4272 11.9811 54.9072 11.8371C55.3992 11.6811 55.9152 11.6031 56.4552 11.6031C57.0432 11.6031 57.5232 11.7111 57.8952 11.9271C58.2792 12.1311 58.5672 12.4131 58.7592 12.7731C58.9632 13.1211 59.1012 13.5171 59.1732 13.9611C59.2572 14.4051 59.2992 14.8551 59.2992 15.3111V21.1971ZM65.7524 21.3771C64.9844 21.3771 64.2944 21.2511 63.6824 20.9991C63.0704 20.7351 62.5484 20.3751 62.1164 19.9191C61.6964 19.4631 61.3724 18.9411 61.1444 18.3531C60.9164 17.7651 60.8024 17.1471 60.8024 16.4991C60.8024 15.8391 60.9164 15.2151 61.1444 14.6271C61.3724 14.0391 61.6964 13.5171 62.1164 13.0611C62.5484 12.6051 63.0704 12.2511 63.6824 11.9991C64.2944 11.7351 64.9844 11.6031 65.7524 11.6031C66.5204 11.6031 67.2044 11.7351 67.8044 11.9991C68.4164 12.2511 68.9384 12.6051 69.3704 13.0611C69.8024 13.5171 70.1264 14.0391 70.3424 14.6271C70.5704 15.2151 70.6844 15.8391 70.6844 16.4991C70.6844 17.1471 70.5704 17.7651 70.3424 18.3531C70.1264 18.9411 69.8024 19.4631 69.3704 19.9191C68.9504 20.3751 68.4344 20.7351 67.8224 20.9991C67.2104 21.2511 66.5204 21.3771 65.7524 21.3771ZM63.2864 16.4991C63.2864 17.0511 63.3944 17.5431 63.6104 17.9751C63.8264 18.3951 64.1204 18.7251 64.4924 18.9651C64.8644 19.2051 65.2844 19.3251 65.7524 19.3251C66.2084 19.3251 66.6224 19.2051 66.9944 18.9651C67.3664 18.7131 67.6604 18.3771 67.8764 17.9571C68.1044 17.5251 68.2184 17.0331 68.2184 16.4811C68.2184 15.9411 68.1044 15.4551 67.8764 15.0231C67.6604 14.5911 67.3664 14.2551 66.9944 14.0151C66.6224 13.7751 66.2084 13.6551 65.7524 13.6551C65.2844 13.6551 64.8644 13.7811 64.4924 14.0331C64.1204 14.2731 63.8264 14.6091 63.6104 15.0411C63.3944 15.4611 63.2864 15.9471 63.2864 16.4991ZM83.696 11.7651H85.9821L82.04 21.1971H80.024L78.44 17.1471L76.892 21.1971H74.858L70.934 11.7651H73.202L76.01 18.8931L77.108 15.8151L75.47 11.7831H77.468L78.44 14.6631L79.43 11.7831H81.428L79.79 15.8151L80.9061 18.8931L83.696 11.7651ZM95.8617 21.1971H93.4497V15.9051C93.4497 15.1731 93.3057 14.6271 93.0177 14.2671C92.7417 13.9071 92.3577 13.7271 91.8657 13.7271C91.5777 13.7271 91.2717 13.8111 90.9477 13.9791C90.6237 14.1471 90.3297 14.3811 90.0657 14.6811C89.8137 14.9691 89.6277 15.3051 89.5077 15.6891V21.1971H87.0957V8.05713H89.5077V13.5111C89.8557 12.9111 90.3297 12.4431 90.9297 12.1071C91.5297 11.7711 92.1837 11.6031 92.8917 11.6031C93.5037 11.6031 94.0017 11.7111 94.3857 11.9271C94.7697 12.1311 95.0697 12.4131 95.2857 12.7731C95.5017 13.1211 95.6517 13.5171 95.7357 13.9611C95.8197 14.3931 95.8617 14.8431 95.8617 15.3111V21.1971ZM97.3109 18.4071C97.3109 17.7951 97.4789 17.2611 97.8149 16.8051C98.1629 16.3371 98.6429 15.9771 99.2549 15.7251C99.8669 15.4731 100.569 15.3471 101.361 15.3471C101.757 15.3471 102.159 15.3771 102.567 15.4371C102.975 15.4971 103.329 15.5931 103.629 15.7251V15.2211C103.629 14.6211 103.449 14.1591 103.089 13.8351C102.741 13.5111 102.219 13.3491 101.523 13.3491C101.007 13.3491 100.515 13.4391 100.047 13.6191C99.5789 13.7991 99.0869 14.0631 98.5709 14.4111L97.7969 12.8271C98.4209 12.4191 99.0569 12.1131 99.7049 11.9091C100.365 11.7051 101.055 11.6031 101.775 11.6031C103.119 11.6031 104.163 11.9391 104.907 12.6111C105.663 13.2831 106.041 14.2431 106.041 15.4911V18.4971C106.041 18.7491 106.083 18.9291 106.167 19.0371C106.263 19.1451 106.413 19.2111 106.617 19.2351V21.1971C106.401 21.2331 106.203 21.2631 106.023 21.2871C105.855 21.3111 105.711 21.3231 105.591 21.3231C105.111 21.3231 104.745 21.2151 104.493 20.9991C104.253 20.7831 104.103 20.5191 104.043 20.2071L103.989 19.7211C103.581 20.2491 103.071 20.6571 102.459 20.9451C101.847 21.2331 101.223 21.3771 100.587 21.3771C99.9629 21.3771 99.3989 21.2511 98.8949 20.9991C98.4029 20.7351 98.0129 20.3811 97.7249 19.9371C97.4489 19.4811 97.3109 18.9711 97.3109 18.4071ZM103.179 18.8931C103.311 18.7491 103.419 18.6051 103.503 18.4611C103.587 18.3171 103.629 18.1851 103.629 18.0651V17.1111C103.341 16.9911 103.029 16.9011 102.693 16.8411C102.357 16.7691 102.039 16.7331 101.739 16.7331C101.115 16.7331 100.599 16.8711 100.191 17.1471C99.7949 17.4111 99.5969 17.7651 99.5969 18.2091C99.5969 18.4491 99.6629 18.6771 99.7949 18.8931C99.9269 19.1091 100.119 19.2831 100.371 19.4151C100.623 19.5471 100.923 19.6131 101.271 19.6131C101.631 19.6131 101.985 19.5471 102.333 19.4151C102.681 19.2711 102.963 19.0971 103.179 18.8931ZM112.687 21.3771C111.919 21.3771 111.229 21.2511 110.617 20.9991C110.005 20.7351 109.483 20.3751 109.051 19.9191C108.619 19.4511 108.283 18.9231 108.043 18.3351C107.815 17.7471 107.701 17.1291 107.701 16.4811C107.701 15.5931 107.899 14.7831 108.295 14.0511C108.703 13.3071 109.279 12.7131 110.023 12.2691C110.767 11.8251 111.649 11.6031 112.669 11.6031C113.689 11.6031 114.565 11.8251 115.297 12.2691C116.029 12.7131 116.575 13.2951 116.935 14.0151L114.577 14.7351C114.373 14.3871 114.103 14.1231 113.767 13.9431C113.431 13.7511 113.059 13.6551 112.651 13.6551C112.195 13.6551 111.775 13.7751 111.391 14.0151C111.019 14.2431 110.725 14.5731 110.509 15.0051C110.293 15.4251 110.185 15.9171 110.185 16.4811C110.185 17.0331 110.293 17.5251 110.509 17.9571C110.737 18.3771 111.037 18.7131 111.409 18.9651C111.781 19.2051 112.195 19.3251 112.651 19.3251C112.939 19.3251 113.209 19.2771 113.461 19.1811C113.725 19.0851 113.959 18.9531 114.163 18.7851C114.367 18.6171 114.517 18.4251 114.613 18.2091L116.971 18.9291C116.755 19.3971 116.437 19.8171 116.017 20.1891C115.609 20.5611 115.123 20.8551 114.559 21.0711C114.007 21.2751 113.383 21.3771 112.687 21.3771ZM124.899 21.1971L122.145 17.1291L120.867 18.3891V21.1971H118.455V8.05713H120.867V16.0131L124.665 11.7831H127.221L123.711 15.7791L127.473 21.1971H124.899Z" fill="white"/>
</svg>
