<svg width="294" height="181" viewBox="0 0 294 181" fill="none" xmlns="http://www.w3.org/2000/svg">
<path d="M191 141C191 145.951 189.033 150.699 185.532 154.199C182.032 157.7 177.284 159.667 172.333 159.667C167.382 159.667 162.635 157.7 159.134 154.199C155.633 150.699 153.667 145.951 153.667 141C153.667 136.049 155.633 131.301 159.134 127.801C162.635 124.3 167.382 122.333 172.333 122.333C177.284 122.333 182.032 124.3 185.532 127.801C189.033 131.301 191 136.049 191 141Z" fill="#8E51FF"/>
<path fill-rule="evenodd" clip-rule="evenodd" d="M85.6665 106.333C85.6665 105.272 86.0879 104.255 86.8381 103.505C87.5882 102.755 88.6056 102.333 89.6665 102.333H196.333C197.394 102.333 198.411 102.755 199.162 103.505C199.912 104.255 200.333 105.272 200.333 106.333C200.333 107.394 199.912 108.412 199.162 109.162C198.411 109.912 197.394 110.333 196.333 110.333H89.6665C88.6056 110.333 87.5882 109.912 86.8381 109.162C86.0879 108.412 85.6665 107.394 85.6665 106.333Z" fill="#8E51FF"/>
<path opacity="0.5" d="M101.336 102.333L103.608 93.24C106.515 81.5973 107.971 75.7787 112.312 72.3867C116.653 69 122.653 69 134.653 69H151.347C163.347 69 169.347 69 173.688 72.3867C178.029 75.7787 179.48 81.5973 182.392 93.24L184.669 102.333H101.336Z" fill="#8E51FF"/>
<path d="M132.333 141C132.333 143.451 131.851 145.879 130.912 148.143C129.974 150.408 128.599 152.466 126.866 154.199C125.133 155.933 123.075 157.308 120.81 158.246C118.545 159.184 116.118 159.667 113.667 159.667C111.215 159.667 108.788 159.184 106.523 158.246C104.258 157.308 102.201 155.933 100.467 154.199C98.734 152.466 97.359 150.408 96.4209 148.143C95.4828 145.879 95 143.451 95 141C95 136.049 96.9667 131.301 100.467 127.801C103.968 124.3 108.716 122.333 113.667 122.333C118.617 122.333 123.365 124.3 126.866 127.801C130.367 131.301 132.333 136.049 132.333 141Z" fill="#8E51FF"/>
<path opacity="0.5" d="M131.715 145.784C132.495 142.836 132.541 139.741 131.848 136.771L134.056 135.667C136.833 134.278 139.895 133.555 143 133.555C146.105 133.555 149.167 134.278 151.944 135.667L154.147 136.765C153.456 139.736 153.504 142.831 154.286 145.779L148.366 142.819C146.7 141.986 144.863 141.552 143 141.552C141.138 141.552 139.301 141.986 137.635 142.819L131.715 145.784Z" fill="#8E51FF"/>
<g clip-path="url(#clip0_36_180)">
<path d="M273.04 80.5017C275.484 79.0901 277.514 77.0614 278.928 74.6186C280.342 72.1758 281.089 69.4046 281.096 66.5822C281.102 63.7597 280.367 60.9851 278.965 58.536C277.562 56.0868 275.541 54.0489 273.103 52.6263C270.665 51.2037 267.897 50.4462 265.074 50.4296C262.252 50.413 259.475 51.1379 257.02 52.5318C254.566 53.9257 252.521 55.9396 251.09 58.3722C249.658 60.8047 248.891 63.5705 248.864 66.3928C248.855 67.2818 248.423 68.1297 247.656 68.5742L237.046 74.698C236.598 74.9571 236.213 75.3138 235.921 75.7415C235.629 76.1692 235.437 76.6572 235.36 77.1691L234.621 82.0175C234.543 82.5352 234.643 83.0621 234.903 83.5159L235.246 84.1103C235.51 84.5617 235.917 84.9115 236.403 85.1038L240.971 86.8883C241.453 87.0769 241.972 87.1546 242.488 87.1157C243.005 87.0767 243.506 86.9222 243.954 86.6634L245.983 85.492L249.013 83.7408L254.563 80.5367C255.334 80.0912 256.281 80.1445 257.056 80.5814C259.496 81.9609 262.255 82.6792 265.058 82.6652C267.862 82.6512 270.613 81.9054 273.04 80.5017Z" fill="#F0B100"/>
<path d="M268.756 64.3672C268.455 63.8252 268.05 63.3486 267.563 62.965C267.077 62.5814 266.519 62.2985 265.921 62.1329C265.324 61.9674 264.7 61.9224 264.086 62.0006C263.471 62.0788 262.878 62.2787 262.341 62.5885C261.805 62.8983 261.335 63.3119 260.96 63.8052C260.585 64.2984 260.312 64.8614 260.157 65.4613C260.001 66.0612 259.967 66.6861 260.056 67.2993C260.145 67.9126 260.355 68.502 260.674 69.0331C261.304 70.0821 262.321 70.8415 263.506 71.1479C264.691 71.4543 265.948 71.2832 267.008 70.6714C268.068 70.0596 268.845 69.056 269.172 67.8769C269.498 66.6977 269.349 65.4374 268.756 64.3672ZM243.089 80.5446L245.981 85.4914L249.011 83.7402L246.111 78.7769C245.997 78.5744 245.844 78.3966 245.661 78.2539C245.478 78.1112 245.268 78.0064 245.044 77.9456C244.819 77.8848 244.585 77.8692 244.355 77.8997C244.125 77.9303 243.903 78.0064 243.703 78.1235C243.502 78.2407 243.327 78.3966 243.187 78.5822C243.047 78.7678 242.946 78.9793 242.889 79.2044C242.832 79.4296 242.82 79.6638 242.855 79.8935C242.889 80.1232 242.968 80.346 243.089 80.5446Z" fill="#363636"/>
</g>
<g clip-path="url(#clip1_36_180)">
<path d="M20.5196 55.0133C23.8666 56.9476 28.1174 55.8086 36.6165 53.5313L49.5724 50.0453C55.4972 48.3925 58.7068 47.1363 60.3132 44.3507C62.2481 41.0059 61.1085 36.7529 58.8312 28.2537C56.5538 19.7546 55.4148 15.5038 52.0662 13.5724C49.2821 11.9631 45.8444 12.476 39.8864 14.0048L26.954 17.4701C18.4548 19.7474 14.2041 20.8864 12.2726 24.2351C10.3412 27.5837 11.4773 31.8328 13.7546 40.332C16.032 48.8311 17.171 53.0819 20.5196 55.0133Z" fill="#00BC7D"/>
<path d="M38.5468 33.6889C38.3866 33.0912 37.9956 32.5815 37.4596 32.2721C36.9237 31.9627 36.2868 31.8789 35.6891 32.039C35.0913 32.1992 34.5817 32.5903 34.2722 33.1262C33.9628 33.6621 33.879 34.299 34.0391 34.8968C34.1993 35.4945 34.5904 36.0042 35.1263 36.3136C35.6622 36.623 36.2991 36.7068 36.8969 36.5467C37.4946 36.3865 38.0043 35.9954 38.3137 35.4595C38.6231 34.9236 38.707 34.2867 38.5468 33.6889ZM27.8816 38.9623C28.4793 38.8022 28.989 38.4111 29.2984 37.8752C29.6078 37.3392 29.6917 36.7023 29.5315 36.1046C29.3713 35.5068 28.9803 34.9972 28.4443 34.6878C27.9084 34.3784 27.2715 34.2945 26.6737 34.4547C26.076 34.6148 25.5664 35.0059 25.2569 35.5418C24.9475 36.0778 24.8637 36.7147 25.0238 37.3124C25.184 37.9102 25.5751 38.4198 26.111 38.7292C26.6469 39.0386 27.2838 39.1225 27.8816 38.9623Z" fill="#363636"/>
<path fill-rule="evenodd" clip-rule="evenodd" d="M36.5624 8.25248C37.0108 8.13236 37.4884 8.19524 37.8904 8.42731C38.2923 8.65937 38.5856 9.04161 38.7057 9.48992L50.784 54.5665C50.9041 55.0148 50.8412 55.4924 50.6091 55.8944C50.3771 56.2963 49.9948 56.5896 49.5465 56.7098C49.0982 56.8299 48.6205 56.767 48.2186 56.5349C47.8167 56.3029 47.5234 55.9206 47.4032 55.4723L35.325 10.3958C35.2049 9.94747 35.2678 9.4698 35.4998 9.06785C35.7319 8.66591 36.1141 8.37261 36.5624 8.25248Z" fill="#009966"/>
</g>
<g clip-path="url(#clip2_36_180)">
<path d="M11.7543 118.254C14.6012 107.629 16.0246 102.317 20.2089 99.8992C24.3972 97.4849 29.7072 98.9078 40.3317 101.755C50.9563 104.601 56.2685 106.025 58.684 110.209C61.1005 114.397 59.6777 119.707 56.8309 130.332C53.984 140.957 52.5606 146.269 48.3746 148.684C44.1926 151.102 38.878 149.678 28.2535 146.831C17.629 143.984 12.3167 142.561 9.89957 138.374C7.48349 134.193 8.90751 128.878 11.7543 118.254Z" fill="#00B8DB"/>
<path d="M23.2229 115.336C23.6021 115.069 24.0719 114.963 24.5291 115.042C24.9863 115.121 25.3934 115.378 25.6609 115.757L26.1463 116.443C27.2055 117.944 28.1071 119.222 28.6709 120.327C29.2715 121.503 29.6459 122.765 29.2733 124.156C28.9007 125.546 27.9447 126.455 26.8375 127.17C25.7966 127.845 24.3768 128.501 22.7088 129.272L21.9456 129.623C21.7362 129.726 21.5083 129.786 21.2754 129.799C21.0424 129.813 20.8091 129.78 20.5891 129.702C20.3692 129.624 20.167 129.503 19.9946 129.346C19.8221 129.189 19.6829 128.998 19.585 128.787C19.4871 128.575 19.4325 128.346 19.4245 128.112C19.4165 127.879 19.4553 127.647 19.5385 127.429C19.6216 127.211 19.7476 127.011 19.9089 126.843C20.0702 126.674 20.2635 126.539 20.4776 126.447L21.1228 126.149C22.9402 125.307 24.129 124.756 24.9359 124.233C25.7015 123.737 25.8406 123.444 25.8925 123.25C25.9445 123.056 25.9703 122.734 25.5555 121.92C25.116 121.063 24.3649 119.99 23.2111 118.355L22.8015 117.774C22.5342 117.395 22.4284 116.925 22.5075 116.468C22.5865 116.011 22.8438 115.603 23.2229 115.336ZM45.4403 134.527C45.3201 134.975 45.0268 135.357 44.6249 135.589C44.223 135.821 43.7453 135.884 43.297 135.764L32.0278 132.745C31.5795 132.625 31.1973 132.331 30.9652 131.929C30.7332 131.527 30.6703 131.05 30.7904 130.601C30.9105 130.153 31.2038 129.771 31.6058 129.539C32.0077 129.307 32.4854 129.244 32.9337 129.364L44.2028 132.384C44.6511 132.504 45.0334 132.797 45.2654 133.199C45.4975 133.601 45.5604 134.079 45.4403 134.527Z" fill="#363636"/>
</g>
<defs>
<clipPath id="clip0_36_180">
<rect width="56" height="56" fill="white" transform="translate(239.201 35.7071) rotate(15)"/>
</clipPath>
<clipPath id="clip1_36_180">
<rect width="56" height="56" fill="white" transform="translate(2 14.4939) rotate(-15)"/>
</clipPath>
<clipPath id="clip2_36_180">
<rect width="56" height="56" fill="white" transform="translate(14.4937 90) rotate(15)"/>
</clipPath>
</defs>
</svg>
