<svg width="277" height="177" viewBox="0 0 277 177" fill="none" xmlns="http://www.w3.org/2000/svg">
<path fill-rule="evenodd" clip-rule="evenodd" d="M90.6958 62.1173C91.2057 61.9896 91.7358 61.9636 92.2557 62.0408C92.7757 62.118 93.2753 62.297 93.7261 62.5674C94.1768 62.8378 94.5698 63.1945 94.8826 63.6169C95.1955 64.0394 95.422 64.5193 95.5492 65.0293L97.5865 73.1787C99.1812 79.5543 102.501 85.3676 107.181 89.9812C111.862 94.5948 117.722 97.8304 124.12 99.3333H166.333C171.722 99.333 176.923 101.311 180.95 104.891C184.976 108.472 187.549 113.406 188.179 118.757L191.64 148.197C191.701 148.719 191.66 149.248 191.517 149.754C191.374 150.259 191.133 150.732 190.808 151.144C190.483 151.557 190.079 151.901 189.621 152.158C189.162 152.415 188.658 152.578 188.136 152.64C187.614 152.702 187.085 152.66 186.58 152.517C186.074 152.374 185.601 152.133 185.189 151.808C184.776 151.483 184.432 151.079 184.175 150.621C183.919 150.162 183.755 149.658 183.693 149.136L180.227 119.696C179.827 116.291 178.191 113.152 175.63 110.873C173.069 108.594 169.761 107.335 166.333 107.333H123.229L122.803 107.237C114.865 105.474 107.576 101.535 101.75 95.8628C95.9252 90.1902 91.7946 83.0077 89.8212 75.12L87.7838 66.9707C87.656 66.4611 87.6298 65.9314 87.7066 65.4117C87.7835 64.8921 87.962 64.3926 88.2319 63.942C88.5019 63.4913 88.8579 63.0982 89.2797 62.7851C89.7016 62.472 90.1863 62.2451 90.6958 62.1173Z" fill="#8E51FF"/>
<path opacity="0.5" d="M123.667 107.333V130C123.667 140.059 123.667 145.083 126.792 148.208C129.917 151.333 134.941 151.333 145 151.333C155.059 151.333 160.083 151.333 163.208 148.208C166.333 145.083 166.333 140.059 166.333 130V107.333H123.667Z" fill="#8E51FF"/>
<path d="M145 87.3333C156.782 87.3333 166.333 77.7821 166.333 66C166.333 54.2179 156.782 44.6667 145 44.6667C133.218 44.6667 123.667 54.2179 123.667 66C123.667 77.7821 133.218 87.3333 145 87.3333Z" fill="#8E51FF"/>
<path d="M244.422 63.404L245.936 66.1177C247.301 68.5677 246.753 71.7783 244.602 73.932C244.602 73.932 241.988 76.543 246.725 81.2773C251.455 86.007 254.068 83.4007 254.068 83.4007C256.222 81.247 259.435 80.6987 261.882 82.0637L264.596 83.5803C268.294 85.643 268.731 90.8277 265.48 94.0803C263.527 96.031 261.133 97.5523 258.49 97.6503C254.038 97.8207 246.475 96.6937 238.89 89.1103C231.306 81.5247 230.179 73.9623 230.35 69.5103C230.45 66.8667 231.969 64.4727 233.92 62.5197C237.172 59.2693 242.357 59.7057 244.42 63.4063" fill="#00BC7D"/>
<path d="M251.94 55.3867C251.977 55.1597 252.058 54.9423 252.179 54.7467C252.3 54.5512 252.458 54.3814 252.645 54.2471C252.831 54.1127 253.043 54.0165 253.266 53.9638C253.49 53.9111 253.722 53.903 253.949 53.94C254.007 53.9517 254.199 53.9867 254.299 54.01C254.5 54.052 254.774 54.122 255.12 54.22C255.813 54.423 256.782 54.7567 257.944 55.2887C260.268 56.355 263.359 58.2193 266.57 61.4277C269.781 64.6383 271.645 67.7323 272.711 70.0563C273.243 71.2183 273.575 72.1843 273.778 72.8797C273.879 73.2292 273.967 73.5826 274.041 73.939L274.053 74.0113C274.13 74.4734 274.022 74.9472 273.753 75.3304C273.483 75.7137 273.074 75.9757 272.613 76.06C272.157 76.1342 271.689 76.0243 271.313 75.7545C270.937 75.4847 270.683 75.0769 270.607 74.6203C270.558 74.3627 270.495 74.1079 270.418 73.8573C270.179 73.056 269.883 72.2731 269.531 71.5147C268.621 69.5313 266.983 66.792 264.094 63.9033C261.206 61.0147 258.469 59.379 256.483 58.469C255.725 58.1172 254.943 57.8209 254.143 57.5823C253.897 57.5134 253.65 57.4511 253.401 57.3957C252.943 57.3188 252.533 57.0653 252.26 56.6896C251.987 56.3139 251.872 55.8461 251.94 55.3867Z" fill="#009966"/>
<path fill-rule="evenodd" clip-rule="evenodd" d="M252.467 63.4367C252.53 63.2156 252.636 63.009 252.779 62.8288C252.922 62.6486 253.098 62.4983 253.299 62.3865C253.5 62.2747 253.721 62.2036 253.949 62.1772C254.178 62.1508 254.409 62.1696 254.63 62.2327L254.637 62.235L254.644 62.2373L254.663 62.242L254.71 62.256L254.84 62.3027C254.944 62.3384 255.082 62.3929 255.253 62.466C255.594 62.6107 256.058 62.8347 256.63 63.173C257.771 63.8497 259.33 64.9697 261.161 66.8037C262.993 68.6353 264.115 70.194 264.792 71.335C265.13 71.9067 265.354 72.371 265.499 72.7117C265.576 72.8899 265.646 73.0713 265.709 73.2553L265.721 73.302L265.728 73.3207V73.3277L265.73 73.33C265.73 73.33 265.73 73.3347 264.05 73.8153L265.73 73.3347C265.848 73.7762 265.789 74.2465 265.566 74.6451C265.342 75.0437 264.971 75.3389 264.532 75.4676C264.094 75.5962 263.622 75.5481 263.218 75.3335C262.815 75.1189 262.511 74.7549 262.372 74.3193L262.365 74.296L262.284 74.0907C262.135 73.7567 261.966 73.4318 261.78 73.1177C261.259 72.2403 260.319 70.9103 258.686 69.277C257.052 67.6437 255.725 66.7057 254.845 66.1853C254.467 65.9635 254.074 65.7686 253.669 65.602L253.646 65.5927C253.205 65.4601 252.834 65.1593 252.613 64.7553C252.393 64.3514 252.34 63.8791 252.467 63.4367Z" fill="#009966"/>
<g clip-path="url(#clip0_36_226)">
<path d="M34.6166 53.5313L42.7912 51.3409C41.5006 50.3611 40.4171 49.1351 39.6036 47.7336C38.7901 46.3322 38.2628 44.7834 38.0521 43.1767C37.8414 41.5701 37.9515 39.9376 38.3761 38.3738C38.8007 36.81 39.5314 35.346 40.5257 34.0666C41.5201 32.7871 42.7584 31.7177 44.169 30.9202C45.5795 30.1226 47.1343 29.6129 48.7433 29.4205C50.3522 29.228 51.9833 29.3567 53.5422 29.7991C55.1011 30.2414 56.5567 30.9887 57.8247 31.9975C57.5247 30.854 57.1936 29.606 56.8312 28.2537C56.5643 27.2575 55.8601 24.6296 55.6189 23.7473L10.5514 35.8231C10.7836 36.7078 11.4878 39.3358 11.7547 40.332C14.032 48.8311 15.171 53.0819 18.5197 55.0133C21.8684 56.9448 26.1174 55.8086 34.6166 53.5313Z" fill="#F0B100"/>
<path d="M21.4949 47.3846C21.3748 46.9363 21.4377 46.4586 21.6698 46.0566C21.9018 45.6547 22.284 45.3614 22.7324 45.2413L31.7477 42.8256C32.196 42.7055 32.6737 42.7684 33.0756 43.0004C33.4775 43.2325 33.7708 43.6147 33.891 44.0631C34.0111 44.5114 33.9482 44.989 33.7161 45.391C33.4841 45.7929 33.1019 46.0862 32.6535 46.2064L23.6382 48.622C23.1899 48.7421 22.7122 48.6792 22.3103 48.4472C21.9083 48.2151 21.6151 47.8329 21.4949 47.3846Z" fill="#D08700"/>
<path fill-rule="evenodd" clip-rule="evenodd" d="M48.7623 36.4549C47.4174 36.8153 46.2707 37.6952 45.5745 38.901C44.8783 40.1069 44.6896 41.5399 45.05 42.8848C45.4104 44.2298 46.2903 45.3765 47.4961 46.0727C48.7019 46.7689 50.135 46.9575 51.4799 46.5972C52.8248 46.2368 53.9715 45.3569 54.6677 44.151C55.3639 42.9452 55.5526 41.5122 55.1922 40.1672C54.8318 38.8223 53.9519 37.6756 52.7461 36.9794C51.5403 36.2832 50.1072 36.0946 48.7623 36.4549ZM41.6692 43.7907C41.3166 42.4728 41.2769 41.0907 41.5535 39.7548C41.83 38.4189 42.4152 37.1661 43.2621 36.0966C44.109 35.0271 45.1943 34.1704 46.4313 33.595C47.6683 33.0196 49.0226 32.7414 50.3863 32.7826C51.7499 32.8239 53.085 33.1834 54.2849 33.8325C55.4849 34.4816 56.5164 35.4023 57.2972 36.521C58.0779 37.6398 58.5863 38.9256 58.7816 40.2758C58.977 41.626 58.8539 43.0032 58.4222 44.2973L60.9976 45.7862C61.2052 45.8964 61.3884 46.0473 61.5363 46.2299C61.6843 46.4125 61.7939 46.623 61.8588 46.8489C61.9236 47.0748 61.9422 47.3115 61.9136 47.5447C61.885 47.778 61.8097 48.0031 61.6922 48.2066C61.5747 48.4101 61.4174 48.5879 61.2297 48.7293C61.042 48.8707 60.8277 48.9729 60.5997 49.0297C60.3716 49.0865 60.1345 49.0968 59.9024 49.06C59.6703 49.0232 59.448 48.94 59.2487 48.8154L56.6716 47.3294C55.6234 48.5129 54.274 49.3903 52.767 49.8683C51.26 50.3463 49.6516 50.407 48.1128 50.0441C46.574 49.6811 45.1623 48.908 44.0277 47.8069C42.8932 46.7058 42.0781 45.3179 41.6692 43.7907Z" fill="#D08700"/>
<path d="M24.9427 17.4731L33.9805 15.0514C42.5023 12.768 46.7642 11.626 50.0842 13.4323C52.4759 14.7312 53.7088 17.1958 55.0194 21.4923L55.6233 23.7461L10.5468 35.8243L9.9429 33.5705C8.92912 29.192 8.76576 26.4457 10.187 24.1227C12.159 20.8985 16.421 19.7565 24.9427 17.4731Z" fill="#D08700"/>
</g>
<g clip-path="url(#clip1_36_226)">
<path d="M9.33894 145.269C11.0468 138.895 11.9013 135.706 14.4127 134.258C16.9224 132.807 20.1115 133.662 26.4854 135.37L44.516 140.201C50.8898 141.909 54.079 142.763 55.527 145.275C56.9779 147.784 56.1233 150.973 54.4155 157.347C52.7076 163.721 51.8531 166.91 49.3417 168.358C46.832 169.809 43.6429 168.955 37.269 167.247L19.2384 162.415C12.8646 160.708 9.67544 159.853 8.22742 157.342C6.77654 154.832 7.63108 151.643 9.33894 145.269Z" fill="#00BBA7"/>
<path d="M22.2578 151.146C22.8555 151.307 23.4924 151.223 24.0284 150.913C24.5643 150.604 24.9554 150.094 25.1155 149.496C25.2757 148.899 25.1918 148.262 24.8824 147.726C24.573 147.19 24.0634 146.799 23.4656 146.639C22.8679 146.479 22.231 146.562 21.695 146.872C21.1591 147.181 20.768 147.691 20.6079 148.289C20.4477 148.886 20.5316 149.523 20.841 150.059C21.1504 150.595 21.66 150.986 22.2578 151.146ZM31.2731 153.562C31.8709 153.722 32.5077 153.638 33.0437 153.329C33.5796 153.019 33.9707 152.51 34.1308 151.912C34.291 151.314 34.2072 150.677 33.8977 150.141C33.5883 149.606 33.0787 149.215 32.4809 149.054C31.8832 148.894 31.2463 148.978 30.7103 149.287C30.1744 149.597 29.7834 150.107 29.6232 150.704C29.463 151.302 29.5469 151.939 29.8563 152.475C30.1657 153.011 30.6753 153.402 31.2731 153.562ZM43.1461 154.328C42.986 154.925 42.5949 155.435 42.059 155.745C41.5231 156.054 40.8862 156.138 40.2884 155.978C39.6907 155.817 39.181 155.426 38.8716 154.89C38.5622 154.355 38.4783 153.718 38.6385 153.12C38.7987 152.522 39.1897 152.013 39.7257 151.703C40.2616 151.394 40.8985 151.31 41.4962 151.47C42.094 151.63 42.6036 152.021 42.913 152.557C43.2225 153.093 43.3063 153.73 43.1461 154.328ZM24.8757 130.107C25.6442 127.223 27.439 124.719 29.923 123.065C32.4071 121.411 35.4095 120.721 38.3666 121.124C41.3237 121.527 44.0319 122.995 45.9828 125.254C47.9337 127.512 48.9931 130.405 48.9619 133.389C48.9705 133.845 49.1563 134.279 49.4798 134.599C49.8034 134.92 50.2392 135.102 50.6947 135.106C51.1501 135.111 51.5894 134.937 51.9191 134.623C52.2488 134.309 52.443 133.878 52.4604 133.423C52.4984 129.588 51.1356 125.87 48.6277 122.969C46.1198 120.067 42.6392 118.179 38.8389 117.661C35.0386 117.143 31.1798 118.03 27.9865 120.154C24.7933 122.279 22.4851 125.496 21.495 129.201L20.2539 133.833C21.3991 134.061 22.5368 134.325 23.6655 134.624L24.8757 130.107Z" fill="#009689"/>
</g>
<defs>
<clipPath id="clip0_36_226">
<rect width="56" height="56" fill="white" transform="translate(0 14.4939) rotate(-15)"/>
</clipPath>
<clipPath id="clip1_36_226">
<rect width="56" height="56" fill="white" transform="translate(14.4937 108) rotate(15)"/>
</clipPath>
</defs>
</svg>
